<?xml version="1.0" encoding="utf-8"?>
<!-- Generator: Adobe Illustrator 24.3.0, SVG Export Plug-In . SVG Version: 6.00 Build 0)  -->
<svg version="1.1" id="Capa_1" xmlns="http://www.w3.org/2000/svg" xmlns:xlink="http://www.w3.org/1999/xlink" x="0px" y="0px"
	 viewBox="0 0 30.9 30.9" style="enable-background:new 0 0 30.9 30.9;" xml:space="preserve">
<style type="text/css">
	.st0{fill:#F44336;}
</style>
<g>
	<path class="st0" d="M24.8,4.5c0-0.9,0-1.5,0-1.5l-9.3,0l0,0h0h0l0,0l-9.3,0c0,0,0,0.6,0,1.5H0v1c0,0.2,0,5.7,3.4,8.7
		C4.8,15.4,6.6,16,8.6,16c0.3,0,0.6,0,1,0c1.2,1.6,2.5,2.7,4,3.3v4.4H9.2v2.8H7.7V28h7.7h0.1h7.7v-1.6h-1.5v-2.8h-4.5v-4.4
		c1.5-0.6,2.9-1.7,4-3.3c0.3,0,0.6,0,1,0c2.1,0,3.8-0.6,5.2-1.9c3.4-3,3.4-8.4,3.4-8.7v-1H24.8z M4.8,12.6C2.8,10.9,2.3,8,2.1,6.5
		h4.2c0.2,1.9,0.6,4.3,1.5,6.4C8,13.2,8.2,13.6,8.3,14C6.9,13.9,5.7,13.5,4.8,12.6z M26.2,12.6c-1,0.8-2.2,1.3-3.6,1.3
		c0.2-0.4,0.4-0.7,0.5-1.1c1-2.1,1.4-4.5,1.5-6.4h4.2C28.7,8,28.1,10.9,26.2,12.6z"/>
</g>
</svg>
